<svg xmlns="http://www.w3.org/2000/svg" xmlns:xlink="http://www.w3.org/1999/xlink" width="500" zoomAndPan="magnify" viewBox="0 0 375 149.999998" height="200" preserveAspectRatio="xMidYMid meet" version="1.0"><defs><g/></defs><path fill="#1d1128" d="M 3.496094 13.585938 L 270.167969 13.585938 L 270.167969 73.574219 L 3.496094 73.574219 L 3.496094 13.585938 " fill-opacity="1" fill-rule="nonzero"/><g fill="#f3f1ff" fill-opacity="1"><g transform="translate(22.355183, 54.865483)"><g><path d="M 14.328125 -25.984375 C 16.628906 -25.984375 18.625 -25.597656 20.3125 -24.828125 C 22.007812 -24.054688 23.316406 -22.96875 24.234375 -21.5625 C 25.148438 -20.15625 25.609375 -18.484375 25.609375 -16.546875 C 25.609375 -14.640625 25.148438 -12.972656 24.234375 -11.546875 C 23.316406 -10.128906 22.007812 -9.039062 20.3125 -8.28125 C 18.625 -7.53125 16.628906 -7.15625 14.328125 -7.15625 L 9.09375 -7.15625 L 9.09375 0 L 3.078125 0 L 3.078125 -25.984375 Z M 13.984375 -12.0625 C 15.796875 -12.0625 17.171875 -12.453125 18.109375 -13.234375 C 19.046875 -14.015625 19.515625 -15.117188 19.515625 -16.546875 C 19.515625 -18.003906 19.046875 -19.125 18.109375 -19.90625 C 17.171875 -20.6875 15.796875 -21.078125 13.984375 -21.078125 L 9.09375 -21.078125 L 9.09375 -12.0625 Z M 13.984375 -12.0625 "/></g></g></g><g fill="#f3f1ff" fill-opacity="1"><g transform="translate(57.529613, 54.865483)"><g><path d="M 19.625 0 L 14.625 -7.234375 L 9.09375 -7.234375 L 9.09375 0 L 3.078125 0 L 3.078125 -25.984375 L 14.328125 -25.984375 C 16.628906 -25.984375 18.625 -25.597656 20.3125 -24.828125 C 22.007812 -24.054688 23.316406 -22.96875 24.234375 -21.5625 C 25.148438 -20.15625 25.609375 -18.484375 25.609375 -16.546875 C 25.609375 -14.617188 25.144531 -12.957031 24.21875 -11.5625 C 23.289062 -10.164062 21.972656 -9.09375 20.265625 -8.34375 L 26.09375 0 Z M 19.515625 -16.546875 C 19.515625 -18.003906 19.046875 -19.125 18.109375 -19.90625 C 17.171875 -20.6875 15.796875 -21.078125 13.984375 -21.078125 L 9.09375 -21.078125 L 9.09375 -12.03125 L 13.984375 -12.03125 C 15.796875 -12.03125 17.171875 -12.425781 18.109375 -13.21875 C 19.046875 -14.007812 19.515625 -15.117188 19.515625 -16.546875 Z M 19.515625 -16.546875 "/></g></g></g><g fill="#f3f1ff" fill-opacity="1"><g transform="translate(92.815344, 54.865483)"><g><path d="M 15.65625 0.453125 C 12.957031 0.453125 10.523438 -0.128906 8.359375 -1.296875 C 6.203125 -2.460938 4.507812 -4.066406 3.28125 -6.109375 C 2.0625 -8.148438 1.453125 -10.441406 1.453125 -12.984375 C 1.453125 -15.535156 2.0625 -17.832031 3.28125 -19.875 C 4.507812 -21.914062 6.203125 -23.515625 8.359375 -24.671875 C 10.523438 -25.835938 12.957031 -26.421875 15.65625 -26.421875 C 18.351562 -26.421875 20.773438 -25.835938 22.921875 -24.671875 C 25.078125 -23.515625 26.773438 -21.914062 28.015625 -19.875 C 29.253906 -17.832031 29.875 -15.535156 29.875 -12.984375 C 29.875 -10.441406 29.253906 -8.148438 28.015625 -6.109375 C 26.773438 -4.066406 25.078125 -2.460938 22.921875 -1.296875 C 20.773438 -0.128906 18.351562 0.453125 15.65625 0.453125 Z M 15.65625 -4.671875 C 17.195312 -4.671875 18.582031 -5.023438 19.8125 -5.734375 C 21.050781 -6.441406 22.019531 -7.425781 22.71875 -8.6875 C 23.425781 -9.945312 23.78125 -11.378906 23.78125 -12.984375 C 23.78125 -14.597656 23.425781 -16.035156 22.71875 -17.296875 C 22.019531 -18.554688 21.050781 -19.535156 19.8125 -20.234375 C 18.582031 -20.941406 17.195312 -21.296875 15.65625 -21.296875 C 14.125 -21.296875 12.738281 -20.941406 11.5 -20.234375 C 10.269531 -19.535156 9.300781 -18.554688 8.59375 -17.296875 C 7.882812 -16.035156 7.53125 -14.597656 7.53125 -12.984375 C 7.53125 -11.378906 7.882812 -9.945312 8.59375 -8.6875 C 9.300781 -7.425781 10.269531 -6.441406 11.5 -5.734375 C 12.738281 -5.023438 14.125 -4.671875 15.65625 -4.671875 Z M 15.65625 -4.671875 "/></g></g></g><g fill="#f3f1ff" fill-opacity="1"><g transform="translate(132.144695, 54.865483)"><g><path d="M 7.875 0.453125 C 6.113281 0.453125 4.492188 0.125 3.015625 -0.53125 C 1.546875 -1.1875 0.34375 -2.125 -0.59375 -3.34375 L 2.75 -7.34375 C 4.15625 -5.4375 5.765625 -4.484375 7.578125 -4.484375 C 10.023438 -4.484375 11.25 -5.921875 11.25 -8.796875 L 11.25 -21.15625 L 2.109375 -21.15625 L 2.109375 -25.984375 L 17.21875 -25.984375 L 17.21875 -9.125 C 17.21875 -5.9375 16.425781 -3.539062 14.84375 -1.9375 C 13.257812 -0.34375 10.9375 0.453125 7.875 0.453125 Z M 7.875 0.453125 "/></g></g></g><g fill="#f3f1ff" fill-opacity="1"><g transform="translate(160.233492, 54.865483)"><g><path d="M 23.1875 -4.828125 L 23.1875 0 L 3.078125 0 L 3.078125 -25.984375 L 22.71875 -25.984375 L 22.71875 -21.15625 L 9.0625 -21.15625 L 9.0625 -15.515625 L 21.109375 -15.515625 L 21.109375 -10.84375 L 9.0625 -10.84375 L 9.0625 -4.828125 Z M 23.1875 -4.828125 "/></g></g></g><g fill="#f3f1ff" fill-opacity="1"><g transform="translate(193.144984, 54.865483)"><g><path d="M 15.515625 0.453125 C 12.867188 0.453125 10.472656 -0.117188 8.328125 -1.265625 C 6.191406 -2.421875 4.507812 -4.019531 3.28125 -6.0625 C 2.0625 -8.101562 1.453125 -10.410156 1.453125 -12.984375 C 1.453125 -15.554688 2.0625 -17.863281 3.28125 -19.90625 C 4.507812 -21.945312 6.191406 -23.539062 8.328125 -24.6875 C 10.472656 -25.84375 12.878906 -26.421875 15.546875 -26.421875 C 17.796875 -26.421875 19.828125 -26.023438 21.640625 -25.234375 C 23.460938 -24.441406 24.992188 -23.304688 26.234375 -21.828125 L 22.375 -18.265625 C 20.625 -20.285156 18.445312 -21.296875 15.84375 -21.296875 C 14.238281 -21.296875 12.804688 -20.941406 11.546875 -20.234375 C 10.285156 -19.535156 9.300781 -18.554688 8.59375 -17.296875 C 7.882812 -16.035156 7.53125 -14.597656 7.53125 -12.984375 C 7.53125 -11.378906 7.882812 -9.945312 8.59375 -8.6875 C 9.300781 -7.425781 10.285156 -6.441406 11.546875 -5.734375 C 12.804688 -5.023438 14.238281 -4.671875 15.84375 -4.671875 C 18.445312 -4.671875 20.625 -5.695312 22.375 -7.75 L 26.234375 -4.1875 C 24.992188 -2.6875 23.457031 -1.535156 21.625 -0.734375 C 19.800781 0.0546875 17.765625 0.453125 15.515625 0.453125 Z M 15.515625 0.453125 "/></g></g></g><g fill="#f3f1ff" fill-opacity="1"><g transform="translate(228.356496, 54.865483)"><g><path d="M 8.46875 -21.078125 L 0.15625 -21.078125 L 0.15625 -25.984375 L 22.78125 -25.984375 L 22.78125 -21.078125 L 14.46875 -21.078125 L 14.46875 0 L 8.46875 0 Z M 8.46875 -21.078125 "/></g></g></g><path fill="#f3f1ff" d="M 113.644531 74.167969 L 362.683594 74.167969 L 362.683594 134.15625 L 113.644531 134.15625 L 113.644531 74.167969 " fill-opacity="1" fill-rule="nonzero"/><g fill="#1d1128" fill-opacity="1"><g transform="translate(132.503456, 115.446408)"><g><path d="M 22.15625 -13.515625 C 23.632812 -13.035156 24.796875 -12.242188 25.640625 -11.140625 C 26.484375 -10.046875 26.90625 -8.695312 26.90625 -7.09375 C 26.90625 -4.8125 26.019531 -3.054688 24.25 -1.828125 C 22.476562 -0.609375 19.898438 0 16.515625 0 L 3.078125 0 L 3.078125 -25.984375 L 15.765625 -25.984375 C 18.929688 -25.984375 21.363281 -25.375 23.0625 -24.15625 C 24.757812 -22.945312 25.609375 -21.300781 25.609375 -19.21875 C 25.609375 -17.957031 25.300781 -16.832031 24.6875 -15.84375 C 24.082031 -14.851562 23.238281 -14.078125 22.15625 -13.515625 Z M 9.0625 -21.453125 L 9.0625 -15.328125 L 15.03125 -15.328125 C 16.507812 -15.328125 17.632812 -15.585938 18.40625 -16.109375 C 19.175781 -16.628906 19.5625 -17.394531 19.5625 -18.40625 C 19.5625 -19.414062 19.175781 -20.175781 18.40625 -20.6875 C 17.632812 -21.195312 16.507812 -21.453125 15.03125 -21.453125 Z M 16.0625 -4.53125 C 17.644531 -4.53125 18.835938 -4.789062 19.640625 -5.3125 C 20.453125 -5.832031 20.859375 -6.632812 20.859375 -7.71875 C 20.859375 -9.875 19.257812 -10.953125 16.0625 -10.953125 L 9.0625 -10.953125 L 9.0625 -4.53125 Z M 16.0625 -4.53125 "/></g></g></g><g fill="#1d1128" fill-opacity="1"><g transform="translate(168.902098, 115.446408)"><g><path d="M 19.625 0 L 14.625 -7.234375 L 9.09375 -7.234375 L 9.09375 0 L 3.078125 0 L 3.078125 -25.984375 L 14.328125 -25.984375 C 16.628906 -25.984375 18.625 -25.597656 20.3125 -24.828125 C 22.007812 -24.054688 23.316406 -22.96875 24.234375 -21.5625 C 25.148438 -20.15625 25.609375 -18.484375 25.609375 -16.546875 C 25.609375 -14.617188 25.144531 -12.957031 24.21875 -11.5625 C 23.289062 -10.164062 21.972656 -9.09375 20.265625 -8.34375 L 26.09375 0 Z M 19.515625 -16.546875 C 19.515625 -18.003906 19.046875 -19.125 18.109375 -19.90625 C 17.171875 -20.6875 15.796875 -21.078125 13.984375 -21.078125 L 9.09375 -21.078125 L 9.09375 -12.03125 L 13.984375 -12.03125 C 15.796875 -12.03125 17.171875 -12.425781 18.109375 -13.21875 C 19.046875 -14.007812 19.515625 -15.117188 19.515625 -16.546875 Z M 19.515625 -16.546875 "/></g></g></g><g fill="#1d1128" fill-opacity="1"><g transform="translate(204.187831, 115.446408)"><g><path d="M 20.1875 -5.5625 L 8.125 -5.5625 L 5.828125 0 L -0.328125 0 L 11.25 -25.984375 L 17.1875 -25.984375 L 28.796875 0 L 22.484375 0 Z M 18.296875 -10.125 L 14.171875 -20.078125 L 10.0625 -10.125 Z M 18.296875 -10.125 "/></g></g></g><g fill="#1d1128" fill-opacity="1"><g transform="translate(240.623596, 115.446408)"><g><path d="M 26.90625 -25.984375 L 26.90625 0 L 21.96875 0 L 9.015625 -15.765625 L 9.015625 0 L 3.078125 0 L 3.078125 -25.984375 L 8.046875 -25.984375 L 20.96875 -10.203125 L 20.96875 -25.984375 Z M 26.90625 -25.984375 "/></g></g></g><g fill="#1d1128" fill-opacity="1"><g transform="translate(278.617439, 115.446408)"><g><path d="M 15.515625 0.453125 C 12.867188 0.453125 10.472656 -0.117188 8.328125 -1.265625 C 6.191406 -2.421875 4.507812 -4.019531 3.28125 -6.0625 C 2.0625 -8.101562 1.453125 -10.410156 1.453125 -12.984375 C 1.453125 -15.554688 2.0625 -17.863281 3.28125 -19.90625 C 4.507812 -21.945312 6.191406 -23.539062 8.328125 -24.6875 C 10.472656 -25.84375 12.878906 -26.421875 15.546875 -26.421875 C 17.796875 -26.421875 19.828125 -26.023438 21.640625 -25.234375 C 23.460938 -24.441406 24.992188 -23.304688 26.234375 -21.828125 L 22.375 -18.265625 C 20.625 -20.285156 18.445312 -21.296875 15.84375 -21.296875 C 14.238281 -21.296875 12.804688 -20.941406 11.546875 -20.234375 C 10.285156 -19.535156 9.300781 -18.554688 8.59375 -17.296875 C 7.882812 -16.035156 7.53125 -14.597656 7.53125 -12.984375 C 7.53125 -11.378906 7.882812 -9.945312 8.59375 -8.6875 C 9.300781 -7.425781 10.285156 -6.441406 11.546875 -5.734375 C 12.804688 -5.023438 14.238281 -4.671875 15.84375 -4.671875 C 18.445312 -4.671875 20.625 -5.695312 22.375 -7.75 L 26.234375 -4.1875 C 24.992188 -2.6875 23.457031 -1.535156 21.625 -0.734375 C 19.800781 0.0546875 17.765625 0.453125 15.515625 0.453125 Z M 15.515625 0.453125 "/></g></g></g><g fill="#1d1128" fill-opacity="1"><g transform="translate(313.828951, 115.446408)"><g><path d="M 26.90625 -25.984375 L 26.90625 0 L 20.890625 0 L 20.890625 -10.65625 L 9.09375 -10.65625 L 9.09375 0 L 3.078125 0 L 3.078125 -25.984375 L 9.09375 -25.984375 L 9.09375 -15.734375 L 20.890625 -15.734375 L 20.890625 -25.984375 Z M 26.90625 -25.984375 "/></g></g></g></svg>